# xmcd
#
# Track frame offsets:
#	150
#	13662
#	23895
#	36022
#	47605
#	60452
#	71575
#	84212
#	95077
#	106282
#	116850
#	129262
#	142475
#	156667
#	171695
#	184810
#	196682
#	211927
#
# Disc length: 2995 seconds
#
# Revision: 1
# Processed by: cddbd v1.5.1PL0 Copyright (c) Steve Scherf et al.
# Submitted via: CDex 1.50Beta5
#
DISCID=050bb112
DTITLE=ザ・ワイルドワンズ - ヒット・コレクション [CD1]
DYEAR=1900
DGENRE=Pop
TTITLE0=想い出の渚
TTITLE1=ユア・ベイビー
TTITLE2=小さな倖せ
TTITLE3=風よつたえて
TTITLE4=夕陽と共に
TTITLE5=可愛い恋人
TTITLE6=青空のある限り
TTITLE7=あの人
TTITLE8=愛するアニタ
TTITLE9=幸せの道
TTITLE10=バラの恋人
TTITLE11=マーシー・マイ・ラヴ
TTITLE12=花のヤングタウン
TTITLE13=あの雲といっしょに
TTITLE14=青い果実
TTITLE15=貝殻の夏
TTITLE16=赤い靴のマリア
TTITLE17=すべてを捧げて
EXTD=
EXTT0=
EXTT1=
EXTT2=
EXTT3=
EXTT4=
EXTT5=
EXTT6=
EXTT7=
EXTT8=
EXTT9=
EXTT10=
EXTT11=
EXTT12=
EXTT13=
EXTT14=
EXTT15=
EXTT16=
EXTT17=
PLAYORDER=
